<svg xmlns="http://www.w3.org/2000/svg" xmlns:xlink="http://www.w3.org/1999/xlink" width="400" zoomAndPan="magnify" viewBox="0 0 300 299.999988" height="400" preserveAspectRatio="xMidYMid meet" version="1.0"><rect x="-30" width="360" fill="#ffffff" y="-29.999999" height="359.999986" fill-opacity="1"/><rect x="-30" width="360" fill="#ffffff" y="-29.999999" height="359.999986" fill-opacity="1"/><path stroke-linecap="butt" transform="matrix(1.880878, 0, 0, 1.880878, 30.000004, 29.999998)" fill-opacity="1" fill="#020203" fill-rule="nonzero" stroke-linejoin="miter" d="M 63.800002 23.200191 L 47.299643 25.399547 L 31.9 31.800316 L 25.499231 47.199958 L 23.299876 63.700317 L 24.799342 75.399061 L 25.399544 80.300364 L 25.399544 80.400051 L 31.800312 95.700007 L 33.200091 96.300208 L 47.199955 102.100775 L 63.700314 104.300131 L 80.200673 102.100775 L 95.600316 95.700007 C 95.600316 95.700007 95.700003 95.700007 95.700003 95.600319 L 102.100772 80.200676 L 104.300128 63.700317 L 102.100772 47.199958 L 95.700003 31.800316 C 95.700003 31.800316 95.700003 31.700628 95.600316 31.700628 L 87.199567 28.199104 L 80.100986 25.299859 Z M 63.800002 23.399566 L 78.800894 37.39943 L 63.800002 41.399392 L 48.799109 37.39943 Z M 64.099064 23.399566 L 80.200673 25.499234 L 78.900582 37.200055 Z M 63.399175 23.399566 L 57.899747 28.500244 L 48.599734 37.200055 L 47.299643 25.499234 Z M 47.100268 25.600999 L 47.999532 33.700609 L 48.400359 37.299743 L 32.099375 31.800316 Z M 80.400048 25.600999 L 82.200654 26.300888 L 83.099918 26.699638 L 95.299177 31.800316 L 83.799807 35.700589 L 79.000269 37.299743 L 79.500784 33.200094 Z M 31.999687 31.999691 L 48.400359 37.499118 L 46.099239 46.099242 L 38.90097 48.099223 L 37.499115 48.50005 L 34.400495 39.200036 Z M 95.500628 31.999691 L 89.999124 48.50005 L 88.499658 48.099223 L 81.399 46.201006 L 79.099957 37.600882 Z M 31.800312 32.199066 L 32.099375 33.200094 L 37.200052 48.50005 L 29.600957 47.700473 L 25.499231 47.199958 Z M 95.700003 32.199066 L 101.89932 47.199958 L 97.799672 47.700473 L 90.200576 48.50005 Z M 78.900582 37.600882 L 80.200673 42.300733 L 81.199625 45.999555 L 64.200829 41.499079 Z M 48.699421 37.600882 L 63.399175 41.499079 L 46.400378 45.999555 L 47.199955 43.10031 Z M 63.800002 41.600843 L 81.299313 46.300694 L 85.999163 63.800005 L 84.400009 69.899634 L 81.399 81.299316 L 71.999299 83.799811 L 63.999377 85.999166 L 46.500066 81.299316 L 43.999571 72.900643 L 41.60084 63.800005 L 46.300691 46.300694 Z M 45.999551 46.400381 L 43.299682 56.599659 L 41.499076 63.399178 L 40.900951 61.000447 L 37.600879 48.699425 Z M 81.500764 46.400381 L 81.899514 46.500069 L 89.899437 48.699425 L 86.699052 61.000447 L 86.100927 63.399178 L 84.200634 56.200909 Z M 25.499231 47.399333 L 28.500241 47.700473 L 37.200052 48.699425 L 23.399563 63.500942 Z M 101.999008 47.399333 L 104.100753 63.500942 L 97.899359 56.799034 L 90.300264 48.699425 Z M 37.399427 48.799112 L 41.399388 63.800005 L 37.399427 78.800898 L 36.90099 78.300383 L 23.399563 63.800005 Z M 90.200576 48.799112 L 104.20044 63.800005 L 90.200576 78.800898 L 86.200615 63.800005 Z M 23.399563 64.099067 L 26.50026 67.399139 L 37.200052 78.800898 L 26.099433 80.100989 L 25.600996 80.200676 Z M 104.100753 64.099067 L 101.999008 80.200676 L 90.300264 78.900585 Z M 41.499076 64.200832 L 44.400398 74.900624 L 46.099239 81.199628 L 45.39935 81.000253 L 37.600879 78.900585 Z M 86.100927 64.200832 L 89.999124 78.900585 L 81.899514 81.099941 L 81.600452 81.199628 Z M 37.29974 79.09996 L 32.799264 92.499622 L 31.800312 95.400944 L 30.400534 91.999108 L 25.600996 80.400051 L 31.700625 79.700162 Z M 37.499115 79.09996 L 40.400437 79.899537 L 46.099239 81.399003 L 48.400359 89.999127 L 31.999687 95.600319 L 33.800293 90.200579 Z M 90.300264 79.09996 L 101.999008 80.400051 L 95.799691 95.400944 L 94.4996 91.50067 Z M 89.999124 79.09996 L 95.500628 95.500632 L 79.099957 89.999127 L 81.399 81.399003 Z M 46.400378 81.500768 L 63.399175 85.999166 L 48.699421 89.999127 Z M 81.199625 81.500768 L 80.499736 83.999186 L 78.900582 89.999127 L 64.200829 86.100931 Z M 63.800002 86.200618 L 78.800894 90.200579 L 72.499813 95.999069 L 63.800002 104.200443 L 48.799109 90.200579 Z M 48.500046 90.300267 L 47.999532 93.999089 L 47.100268 101.999011 L 32.099375 95.799694 Z M 79.099957 90.300267 L 95.400941 95.799694 L 80.400048 101.999011 Z M 48.699421 90.399954 L 63.500939 104.200443 L 47.39933 101.999011 Z M 78.900582 90.399954 L 80.200673 102.100775 L 64.099064 104.200443 L 70.499833 98.200502 Z M 78.900582 90.399954 " stroke="#000000" stroke-width="0.75" stroke-opacity="1" stroke-miterlimit="10"/></svg>