<svg xmlns="http://www.w3.org/2000/svg" xmlns:xlink="http://www.w3.org/1999/xlink" width="400" zoomAndPan="magnify" viewBox="0 0 300 299.999988" height="400" preserveAspectRatio="xMidYMid meet" version="1.0"><defs><clipPath id="8dfcd63cff"><path d="M 53 30 L 247 30 L 247 270 L 53 270 Z M 53 30 " clip-rule="nonzero"/></clipPath></defs><rect x="-30" width="360" fill="#ffffff" y="-29.999999" height="359.999986" fill-opacity="1"/><rect x="-30" width="360" fill="#ffffff" y="-29.999999" height="359.999986" fill-opacity="1"/><path fill="#020203" d="M 195.894531 33.386719 L 103.730469 33.386719 L 73.449219 68.371094 L 73.449219 231.441406 L 91.691406 252.320312 L 103.917969 266.238281 L 195.894531 266.238281 L 216.394531 242.726562 L 226.175781 231.628906 L 226.175781 68.371094 C 226.175781 68.371094 226.175781 68.183594 225.988281 68.183594 L 195.894531 33.386719 C 196.082031 33.574219 196.082031 33.574219 195.894531 33.386719 C 196.082031 33.574219 196.082031 33.386719 195.894531 33.386719 Z M 104.292969 33.949219 L 195.707031 33.949219 L 195.328125 34.890625 L 190.628906 47.867188 L 109.371094 47.867188 Z M 196.082031 34.136719 L 225.988281 68.371094 L 217.710938 72.320312 L 213.761719 74.199219 L 200.785156 59.339844 L 190.816406 48.054688 Z M 103.917969 34.136719 L 107.492188 43.917969 L 108.996094 48.054688 L 108.808594 48.246094 L 86.238281 74.011719 L 74.011719 68.183594 Z M 109.5625 48.246094 L 190.4375 48.246094 L 185.546875 61.597656 L 114.261719 61.597656 Z M 108.996094 48.433594 L 113.886719 61.785156 L 112.195312 63.855469 L 98.277344 79.84375 L 86.613281 74.390625 Z M 190.816406 48.433594 L 193.824219 51.816406 L 213.386719 74.199219 L 207.179688 77.210938 L 201.722656 79.84375 L 185.925781 61.785156 Z M 114.453125 62.164062 L 185.359375 62.164062 L 180.660156 75.328125 L 119.152344 75.328125 L 115.015625 64.042969 Z M 114.074219 62.351562 L 118.777344 75.328125 L 117.460938 77.023438 L 110.125 85.484375 L 98.652344 80.03125 Z M 185.738281 62.351562 L 197.023438 75.140625 L 201.160156 80.03125 L 197.398438 81.914062 L 189.875 85.484375 L 187.429688 82.664062 L 181.035156 75.328125 L 183.101562 69.6875 Z M 226.175781 68.746094 L 226.175781 231.066406 L 214.136719 225.234375 L 214.136719 74.578125 Z M 73.824219 68.746094 L 85.863281 74.578125 L 85.863281 225.421875 L 73.824219 231.253906 Z M 86.425781 74.765625 L 98.085938 80.21875 L 98.085938 219.59375 L 86.425781 225.046875 Z M 213.574219 74.765625 L 213.574219 225.234375 L 201.914062 219.78125 L 201.914062 80.21875 Z M 119.152344 75.707031 L 180.660156 75.707031 L 189.5 85.863281 L 189.5 214.136719 L 184.042969 220.34375 L 180.46875 224.292969 L 119.152344 224.292969 L 110.3125 214.136719 L 110.3125 85.863281 Z M 98.464844 80.40625 L 99.214844 80.785156 L 109.75 85.863281 L 109.75 213.949219 L 100.34375 218.464844 L 98.277344 219.40625 Z M 201.347656 80.40625 L 201.347656 219.40625 L 190.0625 213.949219 L 190.0625 85.863281 Z M 109.9375 214.515625 L 118.777344 224.484375 L 114.074219 237.460938 L 98.652344 219.78125 Z M 189.875 214.515625 L 197.398438 218.085938 L 201.160156 219.96875 L 197.023438 224.859375 L 185.738281 237.648438 L 183.101562 230.125 L 181.035156 224.484375 L 186.863281 217.898438 Z M 98.277344 220.15625 L 114.074219 238.214844 L 111.628906 244.796875 L 109.183594 251.566406 L 104.484375 246.300781 L 86.613281 225.609375 L 90.375 223.730469 Z M 201.722656 220.15625 L 213.386719 225.609375 L 194.765625 246.863281 L 190.816406 251.378906 L 185.925781 238.023438 Z M 119.152344 224.671875 L 180.660156 224.671875 L 185.359375 237.835938 L 114.453125 237.835938 L 115.203125 235.769531 Z M 86.050781 225.800781 L 108.996094 251.945312 L 107.492188 256.082031 L 103.917969 265.863281 L 74.011719 231.628906 Z M 213.761719 225.800781 L 222.226562 229.75 L 225.800781 231.441406 L 195.894531 265.675781 L 190.816406 251.753906 Z M 114.261719 238.214844 L 185.546875 238.214844 L 190.4375 251.566406 L 109.5625 251.566406 Z M 109.371094 252.132812 L 190.628906 252.132812 L 194.199219 261.914062 L 195.707031 266.050781 L 104.292969 266.050781 L 104.671875 265.109375 Z M 109.371094 252.132812 " fill-opacity="1" fill-rule="nonzero"/><g clip-path="url(#8dfcd63cff)"><path stroke-linecap="butt" transform="matrix(1.880878, 0, 0, 1.880878, 30.000004, 29.999998)" fill="none" stroke-linejoin="miter" d="M 88.200595 1.800607 L 39.200033 1.800607 L 23.100501 20.400634 L 23.100501 107.099688 L 32.799264 118.200307 L 39.29972 125.600028 L 88.200595 125.600028 L 99.099763 113.09963 L 104.300128 107.199376 L 104.300128 20.400634 C 104.300128 20.400634 104.300128 20.300946 104.20044 20.300946 L 88.200595 1.800607 C 88.300283 1.900294 88.300283 1.900294 88.200595 1.800607 C 88.300283 1.900294 88.300283 1.800607 88.200595 1.800607 Z M 39.499095 2.099669 L 88.100908 2.099669 L 87.899456 2.600184 L 85.401038 9.49939 L 42.198965 9.49939 Z M 88.300283 2.199357 L 104.20044 20.400634 L 99.799652 22.500302 L 97.699984 23.499254 L 90.800778 15.599019 L 85.500726 9.599077 Z M 39.29972 2.199357 L 41.200013 7.399722 L 41.99959 9.599077 L 41.899903 9.700842 L 29.900019 23.399566 L 23.399563 20.300946 Z M 42.30073 9.700842 L 85.299274 9.700842 L 82.699091 16.799423 L 44.799148 16.799423 Z M 41.99959 9.800529 L 44.599773 16.89911 L 43.700508 17.999827 L 36.300788 26.500263 L 30.099394 23.601018 Z M 85.500726 9.800529 L 87.099879 11.599058 L 97.500609 23.499254 L 94.200537 25.100484 L 91.299215 26.500263 L 82.900543 16.89911 Z M 44.900912 17.100562 L 82.599404 17.100562 L 80.100986 24.099456 L 47.39933 24.099456 L 45.199975 18.099514 Z M 44.69946 17.20025 L 47.199955 24.099456 L 46.500066 25.000797 L 42.599792 29.499196 L 36.500163 26.599951 Z M 82.800856 17.20025 L 88.800797 23.999768 L 91.000153 26.599951 L 89.000172 27.600979 L 85.000211 29.499196 L 83.70012 27.999729 L 80.300361 24.099456 L 81.399 21.100523 Z M 104.300128 20.600009 L 104.300128 106.900313 L 97.899359 103.799616 L 97.899359 23.700706 Z M 23.299876 20.600009 L 29.700644 23.700706 L 29.700644 103.899304 L 23.299876 107.000001 Z M 29.999707 23.800393 L 36.199024 26.699638 L 36.199024 100.800684 L 29.999707 103.699929 Z M 97.600297 23.800393 L 97.600297 103.799616 L 91.40098 100.900371 L 91.40098 26.699638 Z M 47.39933 24.300908 L 80.100986 24.300908 L 84.800836 29.700647 L 84.800836 97.899362 L 81.899514 101.199434 L 79.999221 103.299102 L 47.39933 103.299102 L 42.69948 97.899362 L 42.69948 29.700647 Z M 36.400475 26.799326 L 36.799225 27.000778 L 42.400417 29.700647 L 42.400417 97.799675 L 37.399427 100.200482 L 36.300788 100.700996 Z M 91.09984 26.799326 L 91.09984 100.700996 L 85.099899 97.799675 L 85.099899 29.700647 Z M 42.500105 98.100814 L 47.199955 103.400866 L 44.69946 110.300073 L 36.500163 100.900371 Z M 85.000211 98.100814 L 89.000172 99.99903 L 91.000153 101.000059 L 88.800797 103.600241 L 82.800856 110.39976 L 81.399 106.399799 L 80.300361 103.400866 L 83.398981 99.899343 Z M 36.300788 101.099747 L 44.69946 110.700899 L 43.399369 114.200346 L 42.099278 117.799481 L 39.60086 114.999923 L 30.099394 103.998991 L 32.099375 103.00004 Z M 91.299215 101.099747 L 97.500609 103.998991 L 87.600394 115.298986 L 85.500726 117.699793 L 82.900543 110.599135 Z M 47.39933 103.500554 L 80.100986 103.500554 L 82.599404 110.499448 L 44.900912 110.499448 L 45.299662 109.400808 Z M 29.800332 104.100756 L 41.99959 118.000932 L 41.200013 120.200288 L 39.29972 125.400653 L 23.399563 107.199376 Z M 97.699984 104.100756 L 102.20046 106.200424 L 104.100753 107.099688 L 88.200595 125.300965 L 85.500726 117.899168 Z M 44.799148 110.700899 L 82.699091 110.700899 L 85.299274 117.799481 L 42.30073 117.799481 Z M 42.198965 118.10062 L 85.401038 118.10062 L 87.299254 123.300985 L 88.100908 125.50034 L 39.499095 125.50034 L 39.700547 124.999826 Z M 42.198965 118.10062 " stroke="#000000" stroke-width="0.75" stroke-opacity="1" stroke-miterlimit="10"/></g></svg>