<svg xmlns="http://www.w3.org/2000/svg" xmlns:xlink="http://www.w3.org/1999/xlink" width="400" zoomAndPan="magnify" viewBox="0 0 300 299.999988" height="400" preserveAspectRatio="xMidYMid meet" version="1.0"><rect x="-30" width="360" fill="#ffffff" y="-29.999999" height="359.999986" fill-opacity="1"/><rect x="-30" width="360" fill="#ffffff" y="-29.999999" height="359.999986" fill-opacity="1"/><path stroke-linecap="butt" transform="matrix(1.880878, 0, 0, 1.880878, 30.000004, 29.999998)" fill-opacity="1" fill="#020203" fill-rule="nonzero" stroke-linejoin="miter" d="M 83.999182 23.601018 L 73.899592 24.899033 L 63.800002 27.900042 L 53.800099 24.899033 L 43.700508 23.601018 L 33.299779 26.699638 L 33.000716 26.899013 L 26.099433 33.700609 C 26.099433 33.700609 26.099433 33.700609 26.099433 33.800296 L 26.099433 33.999671 L 23.700703 45.899867 C 23.700703 45.899867 23.700703 45.899867 23.700703 45.999555 L 24.699654 57.000486 L 28.400553 69.00037 L 29.100442 70.400148 L 34.400495 80.200676 L 42.400417 89.89944 L 52.200945 97.899362 L 63.600627 103.899304 L 74.900621 97.899362 L 84.699072 89.89944 L 92.698994 80.200676 L 99.19945 69.00037 L 100.399854 65.100096 L 102.900349 57.100174 L 102.900349 57.000486 L 103.998988 45.899867 C 103.998988 45.899867 103.998988 45.899867 103.998988 45.80018 L 101.600258 33.999671 L 101.600258 33.800296 C 101.600258 33.800296 101.600258 33.800296 101.600258 33.700609 L 94.698975 26.899013 L 94.599287 26.799326 L 83.999182 23.601018 C 84.100947 23.601018 84.100947 23.601018 83.999182 23.601018 Z M 43.600821 23.900081 L 63.500939 33.299782 L 58.699324 35.999652 L 52.40032 39.499099 L 49.299623 39.200036 L 37.200052 38.199007 L 39.200033 33.700609 Z M 83.899495 23.900081 L 84.599384 25.499234 L 90.300264 38.300772 L 75.099996 39.499099 L 63.999377 33.299782 Z M 84.200634 23.900081 L 94.200537 26.899013 L 90.499639 37.999632 Z M 43.299682 23.900081 L 37.100365 37.999632 L 33.299779 26.899013 Z M 44.30071 23.900081 L 53.600724 25.100484 L 62.900737 32.69958 Z M 83.299293 23.900081 L 64.599579 32.69958 L 73.899592 25.100484 L 78.200693 24.500283 Z M 73.399078 25.299859 L 63.899689 33.000719 L 63.899689 28.199104 Z M 54.200926 25.299859 L 63.700314 28.099417 L 63.700314 33.000719 Z M 94.4996 27.100465 L 101.299118 33.999671 L 90.699014 38.199007 Z M 33.100404 27.100465 L 36.699538 37.70057 L 36.90099 38.199007 L 34.199043 37.100368 L 26.300885 33.899984 Z M 63.800002 33.399469 L 74.599481 39.399411 L 74.699169 39.399411 L 52.900834 39.399411 Z M 26.199121 34.099359 L 36.799225 38.300772 L 28.199101 43.10031 L 23.900078 45.49904 Z M 101.400883 34.099359 L 103.699926 45.600805 L 90.800778 38.400459 Z M 90.300264 38.500147 L 89.000172 42.300733 L 86.100927 50.400343 L 75.399058 39.70055 L 83.398981 39.000661 Z M 37.200052 38.500147 L 45.499037 39.200036 L 52.200945 39.70055 L 46.099239 45.700492 L 41.499076 50.300655 Z M 90.499639 38.500147 L 103.600238 45.80018 L 96.599268 52.599698 L 90.200576 59.000467 L 88.39997 55.199881 L 86.300302 50.599718 Z M 37.000677 38.500147 L 41.299701 50.50003 L 37.399427 59.000467 L 23.900078 45.899867 L 31.100423 41.899906 Z M 52.500008 39.70055 L 75.099996 39.70055 L 85.999163 50.599718 L 79.700159 65.60061 L 78.101005 69.500884 L 63.800002 83.700123 L 49.399311 69.500884 L 47.199955 64.300519 L 41.499076 50.599718 Z M 23.900078 46.201006 L 25.299856 47.600785 L 37.100365 59.000467 L 25.000794 56.799034 Z M 103.699926 46.201006 L 102.59921 56.900799 L 90.499639 59.000467 Z M 41.399388 50.900857 L 49.000561 69.100057 L 37.499115 59.199842 Z M 86.200615 50.900857 L 89.999124 59.199842 L 78.499755 69.100057 Z M 25.000794 57.100174 L 37.200052 59.299529 L 28.599928 68.69923 Z M 102.59921 57.100174 L 99.000075 68.69923 L 90.399951 59.299529 L 96.10083 58.300577 Z M 90.100889 59.399217 L 92.900446 79.999224 L 81.500764 82.599407 L 73.399078 84.4997 L 74.300419 81.79983 L 78.400068 69.600572 Z M 37.499115 59.399217 L 40.198985 61.700337 L 49.299623 69.500884 L 54.300613 84.400013 L 34.799245 79.899537 L 36.199024 69.999322 Z M 90.300264 59.600669 L 98.900388 69.00037 L 93.099821 79.799849 Z M 37.200052 59.600669 L 35.999649 68.30048 L 34.400495 79.799849 L 28.599928 69.00037 Z M 49.600763 69.999322 L 58.900776 79.199648 L 63.500939 83.799811 L 54.499988 84.599388 Z M 77.899553 69.999322 L 73.000328 84.599388 L 63.999377 83.799811 Z M 34.901009 80.300364 L 53.999474 84.699075 L 42.599792 89.700065 Z M 92.698994 80.300364 L 84.900524 89.700065 L 73.500842 84.699075 Z M 63.700314 83.999186 L 63.700314 103.400866 L 54.599676 84.900527 Z M 63.899689 83.999186 L 73.000328 84.800839 L 63.899689 103.299102 Z M 73.29939 84.900527 L 80.300361 87.999147 L 84.699072 89.89944 L 75.199683 97.6003 Z M 54.300613 84.900527 L 52.79907 94.59929 L 52.300633 97.6003 L 42.799167 89.89944 Z M 73.100015 85.099902 L 75.000308 97.799675 L 63.999377 103.600241 Z M 54.499988 85.099902 L 63.500939 103.600241 L 52.500008 97.799675 L 53.199897 93.099824 Z M 54.499988 85.099902 " stroke="#000000" stroke-width="0.75" stroke-opacity="1" stroke-miterlimit="10"/></svg>