<svg xmlns="http://www.w3.org/2000/svg" xmlns:xlink="http://www.w3.org/1999/xlink" width="400" zoomAndPan="magnify" viewBox="0 0 300 299.999988" height="400" preserveAspectRatio="xMidYMid meet" version="1.0"><defs><clipPath id="a998400e8d"><path d="M 52 30 L 248 30 L 248 270 L 52 270 Z M 52 30 " clip-rule="nonzero"/></clipPath></defs><rect x="-30" width="360" fill="#ffffff" y="-29.999999" height="359.999986" fill-opacity="1"/><rect x="-30" width="360" fill="#ffffff" y="-29.999999" height="359.999986" fill-opacity="1"/><path fill="#020203" d="M 150 33.386719 L 142.476562 35.453125 L 121.035156 41.285156 C 121.035156 41.285156 120.847656 41.285156 120.847656 41.472656 L 94.890625 67.429688 L 78.527344 106.738281 L 77.960938 108.246094 L 73.824219 140.03125 L 72.507812 149.625 L 77.960938 191.191406 L 94.890625 232.007812 L 121.035156 258.152344 L 150 265.863281 L 171.441406 260.03125 L 178.964844 257.960938 L 179.152344 257.960938 L 205.296875 231.816406 L 222.226562 191.003906 L 227.679688 149.4375 L 222.226562 107.867188 L 205.296875 67.054688 L 178.964844 41.285156 C 178.964844 41.285156 178.964844 41.285156 178.777344 41.285156 Z M 150.5625 34.136719 L 178.589844 41.660156 L 174.261719 61.035156 L 172.945312 66.863281 Z M 149.4375 34.136719 L 126.863281 67.054688 L 123.855469 53.324219 L 121.222656 41.660156 Z M 150 34.136719 L 154.890625 41.285156 L 172.757812 67.429688 L 150 80.785156 L 127.242188 67.429688 Z M 120.847656 41.847656 L 124.609375 58.777344 L 126.488281 67.242188 L 95.453125 67.242188 Z M 178.964844 41.847656 L 204.355469 67.242188 L 173.324219 67.242188 Z M 126.488281 67.804688 L 121.976562 84.734375 L 118.023438 99.214844 L 108.054688 105.421875 L 95.265625 113.511719 L 95.265625 67.804688 Z M 173.324219 67.804688 L 204.734375 67.804688 L 204.734375 113.511719 L 181.785156 99.214844 Z M 127.054688 67.804688 L 137.023438 73.636719 L 149.625 80.972656 L 136.832031 88.308594 L 118.777344 98.839844 Z M 172.945312 67.804688 L 181.222656 98.839844 L 179.339844 97.710938 L 150.375 80.972656 Z M 94.703125 68.746094 L 94.703125 113.699219 L 78.339844 108.246094 L 85.675781 90.375 Z M 205.296875 68.746094 L 221.660156 108.246094 L 205.296875 113.699219 Z M 150 81.347656 L 151.128906 81.914062 L 181.410156 99.59375 L 181.785156 101.097656 L 194.953125 150 L 183.667969 192.320312 L 181.410156 200.59375 L 163.917969 210.5625 L 150 218.652344 L 118.402344 200.40625 L 104.859375 149.8125 L 118.402344 99.59375 Z M 181.976562 99.78125 L 191.378906 105.609375 L 204.734375 113.886719 L 197.960938 139.089844 L 195.328125 149.058594 L 190.4375 131.003906 Z M 117.835938 99.78125 L 112.945312 118.214844 L 104.671875 149.058594 L 95.078125 114.074219 Z M 78.152344 108.621094 L 94.515625 114.074219 L 72.882812 148.871094 Z M 221.660156 108.621094 L 226.929688 148.871094 L 212.820312 126.300781 L 205.296875 114.074219 Z M 94.890625 114.453125 L 101.285156 138.152344 L 104.484375 149.8125 L 98.652344 171.441406 L 94.890625 185.359375 L 72.882812 150 Z M 205.109375 114.453125 L 211.882812 125.359375 L 227.117188 149.8125 L 205.109375 185.359375 L 200.972656 170.3125 L 195.328125 149.8125 L 198.339844 138.527344 Z M 104.671875 150.753906 L 117.835938 200.03125 L 109.183594 194.578125 L 95.265625 185.738281 Z M 195.140625 150.753906 L 200.03125 168.433594 L 204.734375 185.738281 L 181.976562 199.84375 Z M 72.882812 150.941406 L 94.515625 185.738281 L 83.039062 189.5 L 78.152344 191.191406 Z M 226.929688 150.941406 L 221.660156 191.191406 L 216.769531 189.5 L 205.296875 185.738281 L 219.214844 163.167969 Z M 94.703125 186.300781 L 94.703125 231.253906 L 78.339844 191.753906 Z M 205.296875 186.300781 L 221.660156 191.753906 L 205.296875 231.253906 Z M 95.265625 186.300781 L 118.214844 200.59375 L 126.675781 232.007812 L 95.265625 232.007812 Z M 204.734375 186.488281 L 204.734375 232.195312 L 173.324219 232.195312 L 181.785156 200.785156 Z M 118.589844 201.160156 L 136.644531 211.503906 L 149.4375 218.839844 L 143.417969 222.226562 L 126.863281 231.816406 L 122.351562 214.890625 Z M 181.222656 201.160156 L 176.144531 219.59375 L 172.757812 232.007812 L 150.1875 218.839844 L 164.484375 210.5625 Z M 150 219.214844 L 164.105469 227.492188 L 172.757812 232.570312 L 165.988281 242.539062 L 150 266.050781 L 127.242188 232.570312 Z M 95.453125 232.570312 L 126.488281 232.570312 L 120.847656 257.960938 Z M 204.355469 232.570312 L 178.964844 257.960938 L 173.324219 232.570312 Z M 172.945312 232.945312 L 175.957031 246.863281 L 178.402344 258.339844 L 169.75 260.59375 L 150.375 265.675781 Z M 126.863281 232.945312 L 149.4375 265.863281 L 121.410156 258.339844 L 122.164062 254.953125 Z M 126.863281 232.945312 " fill-opacity="1" fill-rule="nonzero"/><g clip-path="url(#a998400e8d)"><path stroke-linecap="butt" transform="matrix(1.880878, 0, 0, 1.880878, 30.000004, 29.999998)" fill="none" stroke-linejoin="miter" d="M 63.800002 1.800607 L 59.80004 2.899246 L 48.400359 5.999943 C 48.400359 5.999943 48.300671 5.999943 48.300671 6.099631 L 34.500182 19.90012 L 25.800371 40.79919 L 25.499231 41.600843 L 23.299876 58.499952 L 22.599986 63.60063 L 25.499231 85.700104 L 34.500182 107.400828 L 48.400359 121.301004 L 63.800002 125.400653 L 75.199683 122.299956 L 79.199644 121.19924 L 79.299332 121.19924 L 93.199509 107.299063 L 102.20046 85.600416 L 105.099704 63.500942 L 102.20046 41.399392 L 93.199509 19.700745 L 79.199644 5.999943 C 79.199644 5.999943 79.199644 5.999943 79.099957 5.999943 Z M 64.099064 2.199357 L 79.000269 6.199318 L 76.69915 16.50036 L 75.99926 19.59898 Z M 63.500939 2.199357 L 51.498979 19.700745 L 49.899825 12.400712 L 48.500046 6.199318 Z M 63.800002 2.199357 L 66.400184 5.999943 L 75.899573 19.90012 L 63.800002 27.000778 L 51.700431 19.90012 Z M 48.300671 6.299006 L 50.300652 15.299957 L 51.299604 19.800432 L 34.799245 19.800432 Z M 79.199644 6.299006 L 92.698994 19.800432 L 76.200712 19.800432 Z M 51.299604 20.099495 L 48.900873 29.100446 L 46.799128 36.799229 L 41.499076 40.0993 L 34.699557 44.400401 L 34.699557 20.099495 Z M 76.200712 20.099495 L 92.900446 20.099495 L 92.900446 44.400401 L 80.699111 36.799229 Z M 51.600743 20.099495 L 56.900796 23.200191 L 63.600627 27.100465 L 56.799031 31.000739 L 47.199955 36.599854 Z M 75.99926 20.099495 L 80.400048 36.599854 L 79.399019 35.999652 L 63.999377 27.100465 Z M 34.400495 20.600009 L 34.400495 44.500088 L 25.700683 41.600843 L 29.600957 32.099378 Z M 93.199509 20.600009 L 101.89932 41.600843 L 93.199509 44.500088 Z M 63.800002 27.29984 L 64.400204 27.600979 L 80.499736 37.00068 L 80.699111 37.800257 L 87.700081 63.800005 L 81.700139 86.300306 L 80.499736 90.699017 L 71.199722 95.999069 L 63.800002 100.30017 L 47.00058 90.599329 L 39.800235 63.700317 L 47.00058 37.00068 Z M 80.800875 37.100368 L 85.799788 40.198988 L 92.900446 44.599776 L 89.299235 57.999438 L 87.899456 63.29949 L 85.299274 53.700414 Z M 46.699441 37.100368 L 44.099258 46.900896 L 39.700547 63.29949 L 34.59987 44.699463 Z M 25.600996 41.800218 L 34.300807 44.699463 L 22.799361 63.199803 Z M 101.89932 41.800218 L 104.700954 63.199803 L 97.19947 51.19992 L 93.199509 44.699463 Z M 34.500182 44.900915 L 37.899942 57.501001 L 39.60086 63.700317 L 36.500163 75.199686 L 34.500182 82.599407 L 22.799361 63.800005 Z M 93.099821 44.900915 L 96.701032 50.699405 L 104.800642 63.700317 L 93.099821 82.599407 L 90.900465 74.599485 L 87.899456 63.700317 L 89.500687 57.700376 Z M 39.700547 64.200832 L 46.699441 90.399954 L 42.099278 87.500709 L 34.699557 82.800859 Z M 87.799769 64.200832 L 90.399951 73.600533 L 92.900446 82.800859 L 80.800875 90.300267 Z M 22.799361 64.300519 L 34.300807 82.800859 L 28.199101 84.800839 L 25.600996 85.700104 Z M 104.700954 64.300519 L 101.89932 85.700104 L 99.299138 84.800839 L 93.199509 82.800859 L 100.599229 70.800975 Z M 34.400495 83.099921 L 34.400495 107.000001 L 25.700683 85.999166 Z M 93.199509 83.099921 L 101.89932 85.999166 L 93.199509 107.000001 Z M 34.699557 83.099921 L 46.900893 90.699017 L 51.399291 107.400828 L 34.699557 107.400828 Z M 92.900446 83.199609 L 92.900446 107.500515 L 76.200712 107.500515 L 80.699111 90.800781 Z M 47.100268 91.000156 L 56.699344 96.499583 L 63.500939 100.399857 L 60.300555 102.200463 L 51.498979 107.299063 L 49.100248 98.300189 Z M 80.400048 91.000156 L 77.700178 100.800684 L 75.899573 107.400828 L 63.899689 100.399857 L 71.500861 95.999069 Z M 63.800002 100.599232 L 71.29941 105.00002 L 75.899573 107.69989 L 72.300438 112.999942 L 63.800002 125.50034 L 51.700431 107.69989 Z M 34.799245 107.69989 L 51.299604 107.69989 L 48.300671 121.19924 Z M 92.698994 107.69989 L 79.199644 121.19924 L 76.200712 107.69989 Z M 75.99926 107.899265 L 77.600491 115.298986 L 78.900582 121.400692 L 74.300419 122.599019 L 63.999377 125.300965 Z M 51.498979 107.899265 L 63.500939 125.400653 L 48.599734 121.400692 L 49.000561 119.600086 Z M 51.498979 107.899265 " stroke="#000000" stroke-width="0.75" stroke-opacity="1" stroke-miterlimit="10"/></g></svg>