<svg xmlns="http://www.w3.org/2000/svg" xmlns:xlink="http://www.w3.org/1999/xlink" width="400" zoomAndPan="magnify" viewBox="0 0 300 299.999988" height="400" preserveAspectRatio="xMidYMid meet" version="1.0"><defs><clipPath id="3cf077a621"><path d="M 54 30 L 249 30 L 249 273.75 L 54 273.75 Z M 54 30 " clip-rule="nonzero"/></clipPath></defs><rect x="-30" width="360" fill="#ffffff" y="-29.999999" height="359.999986" fill-opacity="1"/><rect x="-30" width="360" fill="#ffffff" y="-29.999999" height="359.999986" fill-opacity="1"/><path fill="#020203" d="M 151.875 33.054688 C 151.683594 33.054688 151.683594 33.054688 151.875 33.054688 C 151.683594 33.054688 151.683594 33.054688 151.875 33.054688 C 151.683594 33.246094 151.683594 33.246094 151.875 33.054688 C 151.683594 33.246094 151.683594 33.246094 151.875 33.054688 L 125.132812 56.363281 L 96.285156 99.535156 L 79.285156 149.390625 L 74.316406 186.640625 L 82.339844 227.523438 L 82.339844 227.710938 L 95.902344 247.960938 L 119.402344 263.625 L 151.492188 269.929688 L 183.585938 263.625 C 183.585938 263.625 183.585938 263.625 183.777344 263.625 L 207.082031 247.960938 L 220.644531 227.710938 C 220.644531 227.710938 220.644531 227.710938 220.644531 227.523438 L 220.644531 227.332031 L 228.667969 186.449219 L 223.699219 149.199219 L 214.148438 120.929688 L 206.890625 99.34375 L 178.238281 56.363281 L 152.066406 33.246094 C 152.066406 33.246094 152.066406 33.246094 151.875 33.054688 C 152.066406 33.246094 152.066406 33.246094 151.875 33.054688 C 151.875 33.246094 151.875 33.246094 151.875 33.054688 Z M 151.875 33.820312 L 170.976562 73.363281 L 151.875 89.601562 L 139.457031 79.09375 L 132.773438 73.363281 L 145.761719 46.429688 Z M 151.109375 34.203125 L 142.132812 52.921875 L 132.390625 72.980469 L 125.511719 56.742188 Z M 152.449219 34.203125 L 178.046875 56.742188 L 171.550781 72.027344 L 171.167969 72.980469 Z M 125.324219 57.125 L 127.804688 63.046875 L 132.199219 73.363281 L 97.433594 98.769531 L 115.578125 71.644531 Z M 178.425781 57.125 L 206.316406 98.769531 L 171.550781 73.363281 Z M 171.167969 73.9375 L 171.933594 77.757812 L 181.675781 123.601562 L 171.742188 112.140625 L 152.257812 89.980469 Z M 132.582031 73.9375 L 151.492188 89.980469 L 146.335938 95.902344 L 122.074219 123.601562 Z M 132.007812 73.9375 L 121.3125 124.175781 L 117.871094 128.761719 L 95.902344 155.886719 L 96.285156 133.726562 L 96.859375 101.0625 L 97.050781 100.296875 L 97.050781 100.105469 Z M 171.550781 73.9375 L 206.890625 99.726562 L 207.847656 155.695312 L 182.25 124.175781 Z M 151.875 90.363281 L 155.886719 94.949219 L 181.867188 124.558594 L 199.441406 189.890625 L 196.191406 201.542969 L 189.316406 226.949219 L 175.753906 232.488281 L 151.683594 242.421875 L 114.242188 226.949219 L 107.746094 202.878906 L 104.308594 189.699219 L 121.882812 124.367188 Z M 207.464844 101.253906 L 223.890625 149.582031 L 210.519531 155.3125 L 208.226562 156.078125 L 207.65625 121.5 Z M 96.285156 102.398438 L 95.902344 130.480469 L 95.332031 156.078125 L 79.859375 149.390625 Z M 121.121094 125.324219 L 104.117188 188.933594 L 95.902344 156.460938 Z M 182.4375 125.324219 L 207.65625 156.460938 L 199.441406 188.742188 L 196.191406 176.328125 Z M 79.667969 149.964844 L 95.140625 156.652344 L 75.082031 186.070312 Z M 223.890625 149.964844 L 228.667969 185.878906 L 218.542969 171.359375 L 208.417969 156.652344 L 213.769531 154.359375 Z M 95.523438 157.03125 L 103.925781 189.890625 L 94.757812 217.207031 L 74.890625 186.832031 Z M 208.226562 157.03125 L 228.667969 186.832031 L 213.769531 210.136719 L 209.183594 217.398438 L 204.023438 202.304688 L 199.824219 189.699219 L 205.746094 166.964844 Z M 75.082031 187.980469 L 94.566406 217.589844 L 87.691406 223.511719 L 83.105469 227.523438 L 77.566406 199.824219 Z M 228.476562 187.980469 L 223.320312 214.339844 L 220.644531 227.523438 L 209.375 217.96875 Z M 104.117188 190.652344 L 106.601562 199.632812 L 113.859375 226.757812 L 95.140625 217.589844 Z M 199.632812 190.652344 L 208.992188 217.96875 L 190.082031 226.757812 Z M 95.140625 218.160156 L 97.242188 219.117188 L 114.050781 227.332031 L 125.703125 251.398438 L 96.667969 247.960938 L 95.714844 228.285156 Z M 94.566406 218.160156 L 94.949219 227.710938 L 95.902344 247.578125 L 82.914062 228.09375 L 90.554688 221.601562 Z M 208.800781 218.351562 L 208.035156 230.578125 L 207.082031 247.960938 L 178.046875 251.398438 L 189.699219 227.332031 Z M 209.375 218.542969 L 219.691406 227.332031 L 220.644531 228.09375 L 207.65625 247.386719 L 208.035156 241.847656 Z M 114.625 227.710938 L 151.300781 242.804688 L 126.277344 251.398438 L 123.222656 245.097656 Z M 189.125 227.710938 L 177.472656 251.589844 L 152.449219 242.996094 Z M 151.875 242.996094 L 177.089844 251.78125 L 166.964844 259.039062 L 151.683594 269.929688 L 126.46875 251.78125 Z M 97.242188 248.535156 L 125.703125 251.972656 L 119.78125 263.625 Z M 206.507812 248.535156 L 184.160156 263.433594 L 178.238281 251.78125 Z M 177.472656 252.164062 L 183.394531 263.816406 L 173.078125 265.917969 L 152.640625 269.929688 Z M 126.085938 252.164062 L 150.730469 269.929688 L 119.972656 263.816406 Z M 126.085938 252.164062 " fill-opacity="1" fill-rule="nonzero"/><g clip-path="url(#3cf077a621)"><path stroke-linecap="butt" transform="matrix(1.910266, 0, 0, 1.910266, 30.000004, 29.999998)" fill="none" stroke-linejoin="miter" d="M 63.8 1.599091 C 63.699801 1.599091 63.699801 1.599091 63.8 1.599091 C 63.699801 1.599091 63.699801 1.599091 63.8 1.599091 C 63.699801 1.69929 63.699801 1.69929 63.8 1.599091 C 63.699801 1.69929 63.699801 1.69929 63.8 1.599091 L 49.800807 13.800841 L 34.699429 36.400765 L 25.800146 62.499465 L 23.199069 81.999363 L 27.399236 103.400991 L 27.399236 103.499145 L 34.499031 114.099761 L 46.80098 122.299697 L 63.599602 125.60012 L 80.40027 122.299697 C 80.40027 122.299697 80.40027 122.299697 80.500468 122.299697 L 92.700174 114.099761 L 99.799969 103.499145 C 99.799969 103.499145 99.799969 103.499145 99.799969 103.400991 L 99.799969 103.300793 L 104.000136 81.899164 L 101.399059 62.399266 L 96.399347 47.600528 L 92.599975 36.300566 L 77.60084 13.800841 L 63.900199 1.69929 C 63.900199 1.69929 63.900199 1.69929 63.8 1.599091 C 63.900199 1.69929 63.900199 1.69929 63.8 1.599091 C 63.8 1.69929 63.8 1.69929 63.8 1.599091 Z M 63.8 1.999886 L 73.799423 22.700124 L 63.8 31.200656 L 57.299352 25.699951 L 53.800577 22.700124 L 60.599775 8.600732 Z M 63.399205 2.200283 L 58.70009 11.999309 L 53.600179 22.499726 L 49.99916 13.999194 Z M 64.100596 2.200283 L 77.500641 13.999194 L 74.100019 22.000778 L 73.899622 22.499726 Z M 49.901006 14.199591 L 51.1995 17.299617 L 53.49998 22.700124 L 35.300621 35.99997 L 44.799051 21.80038 Z M 77.698994 14.199591 L 92.299379 35.99997 L 74.100019 22.700124 Z M 73.899622 23.00072 L 74.300417 25.000605 L 79.400327 48.999221 L 74.200218 42.999567 L 64.000397 31.399009 Z M 53.700378 23.00072 L 63.599602 31.399009 L 60.900372 34.499034 L 48.199673 48.999221 Z M 53.399782 23.00072 L 47.800923 49.299817 L 45.99939 51.700496 L 34.499031 65.900086 L 34.699429 54.299528 L 35.000025 37.20031 L 35.100223 36.799515 L 35.100223 36.699316 Z M 74.100019 23.00072 L 92.599975 36.500964 L 93.100969 65.799888 L 79.700923 49.299817 Z M 63.8 31.599406 L 65.900083 34.000086 L 79.500526 49.500214 L 88.700404 83.700696 L 86.999071 89.800549 L 83.400097 103.100395 L 76.300302 106.000023 L 63.699801 111.200133 L 44.099705 103.100395 L 40.699083 90.499895 L 38.899595 83.600497 L 48.099474 49.400015 Z M 92.900571 37.300509 L 101.499257 62.599663 L 94.499661 65.59949 L 93.299321 66.000285 L 93.00077 47.89908 Z M 34.699429 37.899656 L 34.499031 52.60024 L 34.20048 66.000285 L 26.100742 62.499465 Z M 47.700724 49.901009 L 38.799397 83.199702 L 34.499031 66.200683 Z M 79.799077 49.901009 L 93.00077 66.200683 L 88.700404 83.099504 L 86.999071 76.600901 Z M 26.000544 62.800061 L 34.100281 66.300881 L 23.599864 81.700811 Z M 101.499257 62.800061 L 104.000136 81.600613 L 98.699828 73.999824 L 93.39952 66.300881 L 96.200994 65.100542 Z M 34.300679 66.499234 L 38.699198 83.700696 L 33.899884 98.000485 L 23.499665 82.099561 Z M 93.299321 66.499234 L 104.000136 82.099561 L 96.200994 94.299267 L 93.800315 98.100684 L 91.099039 90.199299 L 88.900802 83.600497 L 92.000828 71.699343 Z M 23.599864 82.700754 L 33.799685 98.200882 L 30.200711 101.300908 L 27.800031 103.400991 L 24.900403 88.900805 Z M 103.899937 82.700754 L 101.200706 96.499549 L 99.799969 103.400991 L 93.900514 98.399235 Z M 38.799397 84.099446 L 40.099935 88.800606 L 43.899307 103.000196 L 34.100281 98.200882 Z M 88.800603 84.099446 L 93.700116 98.399235 L 83.800892 103.000196 Z M 34.100281 98.499434 L 35.200422 99.000427 L 43.999506 103.300793 L 50.099359 115.899248 L 34.899826 114.099761 L 34.400877 103.799741 Z M 33.799685 98.499434 L 34.000082 103.499145 L 34.499031 113.899363 L 27.699832 103.699543 L 31.699602 100.300966 Z M 93.599917 98.599632 L 93.199123 105.000081 L 92.700174 114.099761 L 77.500641 115.899248 L 83.600494 103.300793 Z M 93.900514 98.699831 L 99.30102 103.300793 L 99.799969 103.699543 L 93.00077 113.799165 L 93.199123 110.899536 Z M 44.300102 103.499145 L 63.499404 111.40053 L 50.399955 115.899248 L 48.800865 112.60087 Z M 83.299898 103.499145 L 77.200045 115.999447 L 64.100596 111.500729 Z M 63.8 111.500729 L 76.999648 116.099646 L 71.69934 119.899017 L 63.699801 125.60012 L 50.500153 116.099646 Z M 35.200422 114.400357 L 50.099359 116.199844 L 46.999333 122.299697 Z M 92.399578 114.400357 L 80.700866 122.199498 L 77.60084 116.099646 Z M 77.200045 116.300043 L 80.300071 122.399896 L 74.899564 123.500037 L 64.200795 125.60012 Z M 50.299756 116.300043 L 63.200852 125.60012 L 47.099532 122.399896 Z M 50.299756 116.300043 " stroke="#000000" stroke-width="0.75" stroke-opacity="1" stroke-miterlimit="10"/></g></svg>