<svg xmlns="http://www.w3.org/2000/svg" xmlns:xlink="http://www.w3.org/1999/xlink" width="400" zoomAndPan="magnify" viewBox="0 0 300 299.999988" height="400" preserveAspectRatio="xMidYMid meet" version="1.0"><rect x="-30" width="360" fill="#ffffff" y="-29.999999" height="359.999986" fill-opacity="1"/><rect x="-30" width="360" fill="#ffffff" y="-29.999999" height="359.999986" fill-opacity="1"/><path stroke-linecap="butt" transform="matrix(1.880878, 0, 0, 1.880878, 30.000004, 29.999998)" fill-opacity="1" fill="#020203" fill-rule="nonzero" stroke-linejoin="miter" d="M 23.299876 23.200191 C 23.299876 23.200191 23.200188 23.200191 23.299876 23.200191 C 23.200188 23.200191 23.200188 23.200191 23.299876 23.200191 C 23.200188 23.200191 23.200188 23.299879 23.200188 23.399566 L 23.200188 104.300131 C 23.200188 104.300131 23.200188 104.300131 23.200188 104.399818 C 23.200188 104.399818 23.200188 104.399818 23.299876 104.399818 L 104.300128 104.399818 C 104.399815 104.399818 104.399815 104.300131 104.399815 104.300131 L 104.399815 23.299879 C 104.399815 23.200191 104.399815 23.200191 104.300128 23.200191 Z M 23.700703 23.399566 L 103.799613 23.399566 L 92.300244 30.300849 L 35.299759 30.300849 Z M 23.601015 23.601018 L 35.100384 30.500224 L 42.099278 42.198968 L 30.400534 35.200075 Z M 103.899301 23.601018 L 97.000095 35.100387 L 85.299274 42.099281 L 92.300244 30.400537 Z M 23.399563 23.700706 L 30.300846 35.200075 L 30.300846 92.300247 L 23.399563 103.799616 Z M 104.20044 23.700706 L 104.20044 103.799616 L 103.000036 101.799636 L 97.299157 92.300247 L 97.299157 35.299762 Z M 35.999649 30.500224 L 91.600355 30.500224 L 63.800002 39.600863 Z M 35.499134 30.599912 L 63.1998 39.600863 L 42.599792 42.300733 Z M 92.100869 30.599912 L 90.699014 32.901032 L 85.000211 42.40042 L 64.300516 39.70055 L 81.500764 34.099359 Z M 30.599909 35.499137 L 42.400417 42.599795 L 41.000638 53.000525 L 39.700547 63.199803 Z M 96.900407 35.499137 L 89.400999 58.59964 L 87.899456 63.29949 L 85.199586 42.699483 Z M 30.500221 35.999652 L 32.300827 41.600843 L 39.499095 63.800005 L 31.999687 86.80082 L 30.400534 91.600358 L 30.400534 35.999652 Z M 97.000095 35.999652 L 97.000095 91.600358 L 87.999144 63.800005 Z M 63.800002 39.899925 L 84.900524 42.699483 L 87.700081 63.800005 L 84.900524 85.000214 L 63.700314 87.799772 L 52.200945 86.300306 L 42.500105 85.000214 L 39.700547 63.800005 L 42.500105 42.699483 Z M 39.700547 64.300519 L 40.500124 70.300461 L 42.400417 85.000214 L 30.599909 92.100872 Z M 87.899456 64.300519 L 94.399912 84.10095 L 97.000095 91.999108 L 92.200557 89.099863 L 85.199586 84.900527 Z M 42.599792 85.199589 L 45.199975 85.500729 L 63.299487 87.899459 L 48.900873 92.59931 L 35.499134 97.000098 L 39.200033 90.900469 Z M 85.000211 85.199589 L 92.100869 97.000098 L 90.300264 96.399896 L 64.300516 87.899459 Z M 42.198965 85.398964 L 35.200072 97.099785 L 23.700703 103.998991 L 28.099414 96.701035 L 30.599909 92.499622 L 36.199024 89.099863 Z M 85.401038 85.398964 L 97.099782 92.399935 L 97.799672 93.600339 L 103.998988 103.899304 L 92.499619 97.000098 Z M 63.800002 87.999147 L 85.999163 95.199492 L 91.500667 97.000098 L 35.999649 97.000098 L 48.500046 92.900449 Z M 35.200072 97.29916 L 92.300244 97.29916 L 103.799613 104.200443 L 23.700703 104.200443 Z M 35.200072 97.29916 " stroke="#000000" stroke-width="0.75" stroke-opacity="1" stroke-miterlimit="10"/></svg>