<svg xmlns="http://www.w3.org/2000/svg" xmlns:xlink="http://www.w3.org/1999/xlink" width="400" zoomAndPan="magnify" viewBox="0 0 300 299.999988" height="400" preserveAspectRatio="xMidYMid meet" version="1.0"><rect x="-30" width="360" fill="#ffffff" y="-29.999999" height="359.999986" fill-opacity="1"/><rect x="-30" width="360" fill="#ffffff" y="-29.999999" height="359.999986" fill-opacity="1"/><path stroke-linecap="butt" transform="matrix(1.880878, 0, 0, 1.880878, 30.000004, 29.999998)" fill-opacity="1" fill="#020203" fill-rule="nonzero" stroke-linejoin="miter" d="M 102.800661 35.800277 L 102.800661 91.799733 L 96.80072 88.200599 L 96.80072 39.399411 Z M 91.999105 24.500283 L 35.600899 24.500283 C 35.600899 24.500283 35.600899 24.500283 35.499134 24.500283 L 24.599967 35.499137 L 24.599967 91.89942 C 24.599967 91.89942 24.599967 91.89942 24.599967 91.999108 L 35.499134 103.00004 C 35.499134 103.00004 35.499134 103.00004 35.600899 103.00004 L 91.999105 103.00004 C 91.999105 103.00004 92.100869 103.00004 92.100869 102.900352 L 103.000036 91.999108 L 103.000036 91.89942 C 103.000036 73.500845 103.000036 55.000506 103.000036 36.599854 L 103.000036 35.499137 L 91.999105 24.500283 C 91.999105 24.59997 91.999105 24.59997 91.999105 24.500283 C 91.999105 24.59997 91.999105 24.500283 91.999105 24.500283 Z M 91.79973 24.799345 L 88.200595 30.898974 L 39.499095 30.898974 L 35.899961 24.899033 Z M 91.999105 24.799345 L 102.700974 35.600902 L 100.300166 37.00068 C 99.89934 37.299743 99.400902 37.499118 99.000075 37.800257 L 96.698955 39.200036 L 88.39997 30.898974 L 90.200576 27.900042 Z M 35.600899 24.799345 L 37.999629 28.799306 L 39.200033 30.898974 L 36.400475 33.700609 L 30.898971 39.200036 L 24.799342 35.600902 Z M 40.099297 31.000739 L 87.401019 31.000739 L 63.700314 38.300772 L 61.199819 37.499118 Z M 39.499095 31.100426 L 63.1998 38.400459 L 41.499076 41.299704 Z M 88.100908 31.100426 L 87.199567 35.899964 L 86.100927 41.299704 L 64.300516 38.400459 L 83.299293 32.599892 Z M 39.29972 31.200114 L 40.198985 35.800277 L 41.299701 41.299704 L 31.200111 39.299724 Z M 88.300283 31.200114 L 96.399893 39.299724 L 86.300302 41.299704 Z M 24.799342 35.800277 L 30.799284 39.399411 L 30.799284 88.100911 L 25.600996 91.199531 L 24.799342 91.700045 Z M 63.700314 38.599834 L 85.999163 41.499079 L 87.600394 53.600727 L 89.000172 63.800005 L 87.799769 73.000331 L 86.100927 86.100931 L 63.700314 89.000176 L 41.399388 86.100931 L 38.500143 63.800005 L 39.800235 54.099164 L 41.499076 41.499079 L 50.400339 40.300752 Z M 31.100423 39.499099 L 41.299701 41.499079 L 39.60086 54.400304 L 38.400456 63.29949 Z M 96.49958 39.499099 L 89.199547 63.29949 L 89.199547 63.199803 L 86.300302 41.499079 Z M 31.000736 40.0993 L 38.300768 63.800005 L 33.499154 79.199648 L 31.000736 87.500709 Z M 96.49958 40.0993 L 96.49958 62.90074 C 96.49958 64.798957 96.49958 66.801014 96.49958 68.69923 L 96.49958 87.299257 L 92.900446 75.700201 L 89.199547 63.700317 Z M 89.199547 64.400207 L 96.49958 88.100911 L 86.300302 86.100931 Z M 38.400456 64.400207 L 41.299701 86.100931 L 39.100345 86.499681 L 31.100423 88.100911 Z M 41.499076 86.300306 L 63.1998 89.199551 L 39.499095 96.499583 L 40.099297 93.600339 Z M 86.100927 86.300306 L 88.100908 96.499583 L 64.300516 89.199551 Z M 41.200013 86.300306 L 39.200033 96.399896 L 31.100423 88.300286 Z M 86.300302 86.300306 L 96.399893 88.300286 L 88.300283 96.399896 Z M 30.898971 88.399974 L 39.200033 96.701035 L 35.600899 102.800665 L 33.499154 100.700996 L 24.799342 91.999108 Z M 96.701032 88.399974 L 97.799672 89.099863 C 99.19945 89.999127 100.700993 90.800781 102.100772 91.700045 L 102.399835 91.89942 C 102.499522 91.999108 102.59921 92.100872 102.700974 92.100872 L 91.999105 102.700977 L 88.39997 96.599271 Z M 63.700314 89.199551 L 87.401019 96.499583 L 40.099297 96.499583 Z M 39.399408 96.800723 L 88.100908 96.800723 L 91.700042 102.800665 L 35.700586 102.800665 Z M 39.399408 96.800723 " stroke="#000000" stroke-width="0.75" stroke-opacity="1" stroke-miterlimit="10"/></svg>