<svg xmlns="http://www.w3.org/2000/svg" xmlns:xlink="http://www.w3.org/1999/xlink" width="400" zoomAndPan="magnify" viewBox="0 0 300 299.999988" height="400" preserveAspectRatio="xMidYMid meet" version="1.0"><rect x="-30" width="360" fill="#ffffff" y="-29.999999" height="359.999986" fill-opacity="1"/><rect x="-30" width="360" fill="#ffffff" y="-29.999999" height="359.999986" fill-opacity="1"/><path stroke-linecap="butt" transform="matrix(1.880878, 0, 0, 1.880878, 30.000004, 29.999998)" fill-opacity="1" fill="#020203" fill-rule="nonzero" stroke-linejoin="miter" d="M 63.800002 24.300908 L 62.49991 24.300908 L 59.899728 24.500283 L 57.399233 24.799345 L 54.900815 25.299859 L 52.300633 25.999749 L 49.899825 26.799326 L 48.799109 27.29984 L 47.600782 27.800354 L 45.199975 29.000758 L 43.000619 30.300849 L 40.900951 31.700628 L 38.90097 33.299782 L 36.799225 35.0007 L 35.000697 36.799229 L 33.299779 38.699522 L 31.700625 40.699502 L 30.300846 43.000622 L 29.000755 45.199978 L 27.900039 47.499021 L 26.89901 49.899828 L 25.999746 52.300636 L 25.299856 54.799054 L 24.799342 57.299549 L 24.500279 59.899731 L 24.300904 62.499914 L 24.300904 65.100096 L 24.400592 66.801014 L 24.500279 67.700279 L 24.799342 70.200773 L 25.000794 71.199725 L 25.299856 72.699192 L 25.299856 72.800956 L 25.900058 75.199686 L 26.699635 77.600494 L 26.699635 77.700181 L 27.000774 78.499758 L 27.100462 78.800898 L 27.600976 79.999224 L 28.699616 82.200657 L 29.999707 84.400013 L 29.999707 84.4997 L 31.399486 86.599368 L 32.901029 88.599349 L 34.59987 90.499642 L 35.499134 91.400983 L 36.400475 92.300247 L 38.300768 93.999089 L 40.300749 95.500632 L 42.400417 96.90041 L 44.599773 98.200502 L 46.900893 99.299141 L 48.09922 99.799655 L 49.299623 100.30017 L 51.700431 101.099747 L 54.200926 101.799636 L 56.699344 102.30015 L 59.199839 102.599213 L 61.800021 102.800665 L 64.300516 102.800665 L 66.900698 102.599213 L 69.500881 102.30015 L 71.999299 101.799636 L 74.499794 101.099747 L 76.900601 100.30017 L 77.999241 99.799655 C 77.999241 99.799655 77.999241 99.799655 78.101005 99.799655 L 79.299332 99.299141 L 81.600452 98.200502 L 83.799807 96.90041 L 85.899476 95.500632 L 87.899456 93.899401 L 89.799749 92.20056 L 90.699014 91.299219 L 91.600355 90.399954 L 93.299196 88.499661 L 94.900427 86.499681 L 96.300205 84.400013 L 97.600297 82.200657 L 98.701013 79.899537 L 99.19945 78.699133 L 99.699965 77.500806 L 100.499541 75.099999 L 101.199431 72.599504 L 101.699945 70.099009 L 101.999008 67.600591 L 102.20046 65.000409 L 102.20046 62.400226 L 101.999008 59.800044 L 101.699945 57.199861 L 101.199431 54.699366 L 100.499541 52.200948 L 99.699965 49.800141 L 99.19945 48.599737 L 98.701013 47.399333 L 97.600297 45.10029 L 97.299157 43.000622 L 95.899378 40.900954 L 94.300225 38.900974 L 92.599307 37.00068 L 91.700042 36.099339 L 90.699014 35.0007 L 88.800797 33.299782 L 86.800817 31.700628 L 84.699072 30.300849 L 82.400029 29.000758 L 80.100986 27.900042 L 77.700178 26.899013 L 75.199683 25.999749 L 72.699188 25.299859 L 70.20077 24.799345 L 67.600588 24.500283 L 65.000405 24.300908 L 63.800002 24.300908 C 63.800002 24.400595 63.800002 24.400595 63.800002 24.300908 C 63.800002 24.400595 63.800002 24.400595 63.800002 24.300908 C 63.800002 24.400595 63.800002 24.400595 63.800002 24.300908 Z M 62.49991 24.59997 L 63.500939 24.59997 L 62.200848 25.999749 L 52.500008 36.199027 L 50.599714 31.700628 L 48.900873 27.600979 L 49.999513 27.200153 L 52.40032 26.400576 L 54.900815 25.700686 L 57.399233 25.200172 L 59.899728 24.899033 Z M 63.999377 24.59997 L 65.000405 24.59997 L 67.600588 24.799345 L 70.099006 25.100484 L 72.599501 25.600999 L 75.099996 26.300888 L 77.500803 27.100465 L 78.599443 27.499215 L 75.000308 36.099339 Z M 63.800002 24.59997 L 75.000308 36.300791 L 70.300458 38.699522 L 63.800002 41.999593 L 52.599695 36.300791 Z M 48.699421 27.600979 L 51.600743 34.699561 L 52.300633 36.300791 L 45.0006 36.099339 L 36.199024 35.899964 L 36.500163 35.600902 L 36.90099 35.200075 L 38.799206 33.499157 L 40.799187 31.900003 L 42.900931 30.500224 L 45.100287 29.200133 L 47.39933 28.099417 Z M 78.900582 27.600979 L 79.999221 27.999729 L 82.300341 29.100446 L 84.499697 30.400537 L 86.599365 31.800316 L 88.599345 33.399469 L 90.499639 35.100387 L 91.199528 35.800277 L 83.000231 36.099339 L 75.299371 36.300791 Z M 36.099336 36.099339 L 52.300633 36.500166 L 48.400359 48.400362 L 36.500163 52.300636 Z M 91.500667 36.099339 L 91.299215 46.099242 L 91.199528 52.200948 L 79.299332 48.300675 L 75.399058 36.400479 Z M 35.899961 36.300791 L 36.300788 52.300636 L 27.700664 48.699425 L 28.099414 47.600785 L 29.20013 45.299665 L 30.500221 43.10031 L 31.9 41.000642 L 33.499154 39.000661 L 35.200072 37.100368 Z M 91.700042 36.300791 L 92.399932 37.00068 L 94.10085 38.900974 L 95.700003 40.900954 L 97.099782 43.000622 L 98.399873 45.199978 L 99.50059 47.499021 L 99.89934 48.599737 L 91.299215 52.200948 Z M 52.500008 36.500166 L 63.500939 42.099281 L 48.699421 48.200987 Z M 75.099996 36.500166 L 77.399039 43.49906 L 78.900582 48.200987 L 64.099064 42.099281 L 69.799943 39.200036 Z M 63.800002 42.300733 L 79.000269 48.599737 L 79.099957 49.000564 L 85.299274 63.899692 L 79.000269 79.000273 L 67.799963 83.600436 L 63.800002 85.299277 L 48.599734 79.000273 L 42.30073 63.800005 L 48.599734 48.599737 L 56.200906 45.49904 Z M 48.300671 48.699425 L 45.199975 56.099145 L 42.099278 63.500942 L 40.900951 61.000447 L 36.59985 52.500011 Z M 79.299332 48.699425 L 91.000153 52.500011 L 89.700062 55.100193 L 85.398961 63.500942 Z M 27.499212 48.900876 L 36.099336 52.500011 L 24.500279 63.500942 L 24.500279 62.499914 L 24.699654 59.899731 L 25.000794 57.399236 L 25.499231 54.900818 L 26.199121 52.400323 L 27.000774 49.999516 Z M 99.999027 48.900876 L 100.399854 49.999516 L 101.199431 52.400323 L 101.89932 54.900818 L 102.399835 57.399236 L 102.700974 59.899731 L 102.900349 62.499914 L 102.900349 63.500942 L 91.299215 52.500011 Z M 36.300788 52.599698 L 37.200052 54.400304 L 41.99959 63.800005 L 36.300788 75.000311 L 24.599967 63.800005 Z M 91.199528 52.599698 L 97.099782 58.20089 L 102.900349 63.700317 L 101.299118 65.199784 L 91.199528 74.900624 L 85.500726 63.700317 Z M 24.599967 64.099067 L 36.199024 75.099999 L 27.600976 78.699133 L 27.200149 77.600494 L 26.400572 75.199686 L 25.700683 72.699192 L 25.200169 70.200773 L 24.899029 67.700279 L 24.699654 65.100096 L 24.699654 64.099067 Z M 103.000036 64.099067 L 103.000036 65.100096 L 102.800661 67.700279 L 102.499522 70.200773 L 101.999008 72.699192 L 101.699945 73.799908 L 101.299118 75.199686 L 100.800681 76.499778 L 100.399854 77.600494 L 100.300166 77.899556 L 99.999027 78.699133 L 94.10085 76.300403 L 91.40098 75.199686 Z M 42.099278 64.099067 L 48.200984 78.900585 L 36.500163 75.099999 Z M 85.401038 64.099067 L 91.000153 75.099999 L 79.299332 78.900585 Z M 36.500163 75.299374 L 48.400359 79.199648 L 49.199936 81.600455 L 52.300633 91.099844 L 36.099336 91.50067 Z M 91.09984 75.299374 L 91.500667 91.50067 L 75.299371 91.099844 L 79.199644 79.199648 Z M 91.299215 75.299374 L 93.500648 76.200715 L 99.89934 78.900585 L 99.600277 79.700162 L 99.50059 79.999224 L 98.399873 82.300344 L 97.099782 84.4997 L 95.700003 86.599368 L 94.10085 88.599349 L 92.399932 90.499642 L 91.700042 91.199531 Z M 36.300788 75.299374 L 35.899961 91.299219 L 35.200072 90.599329 L 34.799245 90.200579 L 33.499154 88.699036 L 31.9 86.699056 L 30.500221 84.599388 L 29.20013 82.400032 L 28.099414 79.999224 L 27.700664 78.900585 Z M 48.699421 79.299335 L 63.500939 85.398964 L 52.500008 91.000156 Z M 78.900582 79.299335 L 78.400068 80.699114 L 75.099996 91.000156 L 69.000367 87.899459 L 64.099064 85.398964 Z M 63.800002 85.500729 L 75.000308 91.199531 L 63.800002 102.900352 L 60.699305 99.699968 L 52.599695 91.199531 Z M 52.300633 91.299219 L 48.699421 99.899343 L 47.600782 99.500593 L 45.299662 98.399877 L 43.100306 97.099785 L 41.000638 95.700007 L 39.000658 94.100853 L 37.000677 92.399935 L 36.300788 91.700045 L 43.299682 91.50067 Z M 75.299371 91.299219 L 83.000231 91.50067 L 91.299215 91.700045 L 90.599326 92.399935 L 88.699033 94.100853 L 86.699052 95.700007 L 84.599384 97.099785 L 83.999182 97.400925 L 82.200654 98.399877 L 79.999221 99.500593 L 78.900582 99.899343 Z M 52.500008 91.400983 L 57.299546 96.399896 L 63.500939 102.900352 L 62.49991 102.900352 L 61.100132 102.800665 L 59.899728 102.700977 L 58.799012 102.599213 L 57.399233 102.399838 L 55.899767 102.100775 L 54.900815 101.899323 L 52.40032 101.199434 L 51.199916 100.800684 L 49.999513 100.399857 L 49.199936 100.100795 L 48.900873 99.99903 Z M 75.099996 91.400983 L 78.69913 99.99903 L 77.700178 100.399857 L 75.299371 101.199434 L 72.800953 101.899323 L 70.300458 102.399838 L 67.799963 102.700977 L 65.19978 102.900352 L 64.200829 102.900352 Z M 75.099996 91.400983 " stroke="#000000" stroke-width="0.75" stroke-opacity="1" stroke-miterlimit="10"/></svg>